<?xml version="1.0" encoding="utf-8"?>
<!-- Generator: Adobe Illustrator 23.0.3, SVG Export Plug-In . SVG Version: 6.00 Build 0)  -->
<svg version="1.1" id="Background" xmlns="http://www.w3.org/2000/svg" xmlns:xlink="http://www.w3.org/1999/xlink" x="0px" y="0px"
	 viewBox="0 0 750 500" style="enable-background:new 0 0 750 500;" xml:space="preserve">
<style type="text/css">
	.st0{fill:#F7FBFC;}
	.st1{opacity:0.5;fill:url(#SVGID_1_);}
	.st2{opacity:0.5;fill:url(#SVGID_2_);}
	.st3{opacity:0.5;fill:url(#SVGID_3_);}
	.st4{opacity:0.5;fill:url(#SVGID_4_);}
	.st5{fill:url(#SVGID_5_);}
	.st6{opacity:0.5;fill:url(#SVGID_6_);}
	.st7{fill:#FFFFFF;}
	.st8{opacity:0.5;fill:url(#SVGID_7_);}
	.st9{opacity:0.5;fill:url(#SVGID_8_);}
	.st10{fill:url(#SVGID_9_);}
	.st11{opacity:0.5;fill:url(#SVGID_10_);}
	.st12{opacity:0.5;fill:url(#SVGID_11_);}
	.st13{fill:url(#SVGID_12_);}
	.st14{opacity:0.5;fill:url(#SVGID_13_);}
	.st15{fill:url(#SVGID_14_);}
	.st16{opacity:0.5;fill:url(#SVGID_15_);}
	.st17{fill:url(#SVGID_16_);}
	.st18{opacity:0.5;fill:url(#SVGID_17_);}
	.st19{fill:url(#SVGID_18_);}
	.st20{opacity:0.5;fill:url(#SVGID_19_);}
	.st21{fill:url(#SVGID_20_);}
</style>
<g>
	<g>
		<rect class="st0" width="750" height="500"/>
		<linearGradient id="SVGID_1_" gradientUnits="userSpaceOnUse" x1="373.5665" y1="275.3252" x2="353.2942" y2="633.4692">
			<stop  offset="0" style="stop-color:#FFFFFF;stop-opacity:0"/>
			<stop  offset="1" style="stop-color:#59595B"/>
		</linearGradient>
		<rect class="st1" width="750" height="500"/>
		<linearGradient id="SVGID_2_" gradientUnits="userSpaceOnUse" x1="448.4968" y1="413.7563" x2="320.106" y2="127.6921">
			<stop  offset="0" style="stop-color:#FFFFFF;stop-opacity:0"/>
			<stop  offset="1" style="stop-color:#59595B"/>
		</linearGradient>
		<rect class="st2" width="750" height="500"/>
		<g>
			<path class="st0" d="M750,0v175.8c-36.3,24.9-83.6,36.1-128.5,39.2c-65.1,4.5-131.7-3.4-194.9,12.8c-79,20.3-145,77.4-190,145.5
				c-28.4,43.1-50.8,92.4-88.4,126.7H0V0H750z"/>
			<linearGradient id="SVGID_3_" gradientUnits="userSpaceOnUse" x1="398.1809" y1="276.658" x2="285.5569" y2="147.1405">
				<stop  offset="0" style="stop-color:#FFFFFF;stop-opacity:0"/>
				<stop  offset="1" style="stop-color:#59595B"/>
			</linearGradient>
			<path class="st3" d="M750,0v175.8c-36.3,24.9-83.6,36.1-128.5,39.2c-65.1,4.5-131.7-3.4-194.9,12.8c-79,20.3-145,77.4-190,145.5
				c-28.4,43.1-50.8,92.4-88.4,126.7H0V0H750z"/>
			<linearGradient id="SVGID_4_" gradientUnits="userSpaceOnUse" x1="387.562" y1="338.9002" x2="321.677" y2="-127.3627">
				<stop  offset="0" style="stop-color:#FFFFFF;stop-opacity:0"/>
				<stop  offset="1" style="stop-color:#59595B"/>
			</linearGradient>
			<path class="st4" d="M750,0v175.8c-36.3,24.9-83.6,36.1-128.5,39.2c-65.1,4.5-131.7-3.4-194.9,12.8c-79,20.3-145,77.4-190,145.5
				c-28.4,43.1-50.8,92.4-88.4,126.7H0V0H750z"/>
			<linearGradient id="SVGID_5_" gradientUnits="userSpaceOnUse" x1="454.2766" y1="353.3189" x2="390.0811" y2="195.6453">
				<stop  offset="0" style="stop-color:#FFFFFF;stop-opacity:0"/>
				<stop  offset="1" style="stop-color:#FFFFFF"/>
			</linearGradient>
			<path class="st5" d="M750,173v2.8c-36.3,24.9-83.6,36.1-128.5,39.2c-65.1,4.5-131.7-3.4-194.9,12.8c-79,20.3-145,77.4-190,145.5
				c-28.4,43.1-50.8,92.4-88.4,126.7h-3.3c39-34.4,61.7-84.8,90.7-128.7c44.9-68.1,110.9-125.2,190-145.5
				c63.2-16.3,129.8-8.3,194.9-12.8C665.8,209.8,713.6,198.4,750,173z"/>
		</g>
		<g>
			<path class="st0" d="M750,285.2V500H266.3c2.2-36,8.9-73.4,32.2-100.8c5.4-6.4,11.4-11.9,18-16.6c0.7-0.5,1.4-1,2.1-1.5
				c33.2-23.1,78.7-27.9,120.1-24.3c4.3,0.4,8.7,0.8,13,1.3c1.9,0.2,3.7,0.4,5.6,0.7c44.3,5.5,88.5,15.9,132.8,11.6
				c1.9-0.2,3.7-0.4,5.6-0.6c1.8-0.2,3.6-0.5,5.4-0.8C658.2,360.3,710.2,327.5,750,285.2z"/>
			<linearGradient id="SVGID_6_" gradientUnits="userSpaceOnUse" x1="502.0332" y1="337.6339" x2="511.0431" y2="418.7231">
				<stop  offset="0" style="stop-color:#FFFFFF;stop-opacity:0"/>
				<stop  offset="1" style="stop-color:#59595B"/>
			</linearGradient>
			<path class="st6" d="M750,285.2V500H266.3c2.2-36,8.9-73.4,32.2-100.8c5.4-6.4,11.4-11.9,18-16.6c0.7-0.5,1.4-1,2.1-1.5
				c33.2-23.1,78.7-27.9,120.1-24.3c4.3,0.4,8.7,0.8,13,1.3c1.9,0.2,3.7,0.4,5.6,0.7c44.3,5.5,88.5,15.9,132.8,11.6
				c1.9-0.2,3.7-0.4,5.6-0.6c1.8-0.2,3.6-0.5,5.4-0.8C658.2,360.3,710.2,327.5,750,285.2z"/>
			<path class="st7" d="M750,285.2v1.6c-38.6,41-88.7,72.9-143.8,82.7c-1.7,0.3-3.4,0.6-5.1,0.8c-3.6,0.6-7.3,1-10.9,1.4
				c-46.2,4.5-92.2-7-138.4-12.3c-1.7-0.2-3.5-0.4-5.2-0.6c-2.6-0.3-5.2-0.5-7.8-0.8c-40.5-3.5-85,1-117.9,22.8
				c-0.8,0.5-1.5,1-2.2,1.5c-7.4,5.1-14.1,11.1-20.1,18.2c-22.9,27-29.8,63.8-32.1,99.4h-0.3c2.2-36,8.9-73.4,32.2-100.8
				c5.4-6.4,11.4-11.9,18-16.6c0.7-0.5,1.4-1,2.1-1.5c33.2-23.1,78.7-27.9,120.1-24.3c4.3,0.4,8.7,0.8,13,1.3
				c1.9,0.2,3.7,0.4,5.6,0.7c44.3,5.5,88.5,15.9,132.8,11.6c1.9-0.2,3.7-0.4,5.6-0.6c1.8-0.2,3.6-0.5,5.4-0.8
				C658.2,360.3,710.2,327.5,750,285.2z"/>
		</g>
		<g>
			<path class="st0" d="M750,341.4V500H337.2c2.2-36,8.9-73.4,32.2-100.8c3.3-3.9,6.8-7.5,10.6-10.8c0.4-0.4,0.9-0.8,1.3-1.1
				c18.2-15.4,41.1-24.3,65.4-28.5c1.7-0.3,3.3-0.6,5-0.8c19.1-2.8,39-3,57.9-1.3c30.5,2.6,61,8.8,91.4,12.2
				c1.7,0.2,3.5,0.4,5.2,0.6c18.2,1.9,36.5,2.6,54.8,0.8c16.9-1.6,33.3-5.4,49.2-10.9c1-0.4,2-0.7,3-1.1
				C725.9,353.8,738.2,348,750,341.4z"/>
			<linearGradient id="SVGID_7_" gradientUnits="userSpaceOnUse" x1="536.6299" y1="370.4886" x2="549.0186" y2="459.4615">
				<stop  offset="0" style="stop-color:#FFFFFF;stop-opacity:0"/>
				<stop  offset="1" style="stop-color:#59595B"/>
			</linearGradient>
			<path class="st8" d="M750,341.4V500H337.2c2.2-36,8.9-73.4,32.2-100.8c3.3-3.9,6.8-7.5,10.6-10.8c0.4-0.4,0.9-0.8,1.3-1.1
				c18.2-15.4,41.1-24.3,65.4-28.5c1.7-0.3,3.3-0.6,5-0.8c19.1-2.8,39-3,57.9-1.3c30.5,2.6,61,8.8,91.4,12.2
				c1.7,0.2,3.5,0.4,5.2,0.6c18.2,1.9,36.5,2.6,54.8,0.8c16.9-1.6,33.3-5.4,49.2-10.9c1-0.4,2-0.7,3-1.1
				C725.9,353.8,738.2,348,750,341.4z"/>
			<path class="st7" d="M750,341.4v1.5c-12.8,7.2-26.1,13.3-39.9,18c-1,0.3-2,0.7-2.9,1c-14.9,4.9-30.2,8.3-45.9,9.8
				c-20,1.9-40,0.9-60-1.4c-1.8-0.2-3.7-0.4-5.6-0.6c-28.6-3.5-57.1-9.1-85.8-11.6c-17.2-1.5-35.1-1.5-52.6,0.6
				c-1.8,0.2-3.6,0.5-5.4,0.7c-25.6,3.8-49.9,12.5-69.1,28.3c-0.4,0.4-0.9,0.7-1.3,1.1c-4.2,3.6-8.2,7.5-11.8,11.8
				c-22.9,27-29.8,63.8-32.1,99.4h-0.3c2.2-36,8.9-73.4,32.2-100.8c3.3-3.9,6.8-7.5,10.6-10.8c0.4-0.4,0.9-0.8,1.3-1.1
				c18.2-15.4,41.1-24.3,65.4-28.5c1.7-0.3,3.3-0.6,5-0.8c19.1-2.8,39-3,57.9-1.3c30.5,2.6,61,8.8,91.4,12.2
				c1.7,0.2,3.5,0.4,5.2,0.6c18.2,1.9,36.5,2.6,54.8,0.8c16.9-1.6,33.3-5.4,49.2-10.9c1-0.4,2-0.7,3-1.1
				C725.9,353.8,738.2,348,750,341.4z"/>
		</g>
		<g>
			<path class="st0" d="M750,324.7V500H194.1c7.6-34,20-68.2,46.1-90.9c21.6-18.8,49.4-26.9,78.3-28.1c0.8,0,1.6-0.1,2.4-0.1
				c20.1-0.6,40.8,2,60.3,6.4c0.5,0.1,1,0.2,1.5,0.3c0.9,0.2,1.7,0.4,2.5,0.6c49.4,11.9,96.9,33.5,147.6,36.3
				c63,3.5,125.1-23,174.3-62.6c0.3-0.2,0.6-0.5,0.8-0.7c0.7-0.6,1.5-1.2,2.2-1.8C723.7,348.3,736.7,336.2,750,324.7z"/>
			<linearGradient id="SVGID_8_" gradientUnits="userSpaceOnUse" x1="473.067" y1="438.5997" x2="476.4457" y2="527.5725">
				<stop  offset="0" style="stop-color:#FFFFFF;stop-opacity:0"/>
				<stop  offset="1" style="stop-color:#59595B"/>
			</linearGradient>
			<path class="st9" d="M750,324.7V500H194.1c7.6-34,20-68.2,46.1-90.9c21.6-18.8,49.4-26.9,78.3-28.1c0.8,0,1.6-0.1,2.4-0.1
				c20.1-0.6,40.8,2,60.3,6.4c0.5,0.1,1,0.2,1.5,0.3c0.9,0.2,1.7,0.4,2.5,0.6c49.4,11.9,96.9,33.5,147.6,36.3
				c63,3.5,125.1-23,174.3-62.6c0.3-0.2,0.6-0.5,0.8-0.7c0.7-0.6,1.5-1.2,2.2-1.8C723.7,348.3,736.7,336.2,750,324.7z"/>
			<linearGradient id="SVGID_9_" gradientUnits="userSpaceOnUse" x1="194.1401" y1="412.345" x2="750" y2="412.345">
				<stop  offset="0" style="stop-color:#FFFFFF;stop-opacity:0"/>
				<stop  offset="1" style="stop-color:#FFFFFF"/>
			</linearGradient>
			<path class="st10" d="M750,324.7v1.4c-12.4,10.6-24.4,21.9-36.8,32.3c-1,0.9-2,1.7-3.1,2.6c-0.7,0.6-1.4,1.2-2.1,1.7
				c-49.3,40-111.7,66.8-175.1,63.3c-50.7-2.8-98.2-24.3-147.6-36.3c-1.3-0.3-2.6-0.6-3.9-0.9c-0.5-0.1-1-0.2-1.5-0.3
				c-19.9-4.4-40.9-6.9-61.3-6c-0.8,0-1.5,0.1-2.3,0.1c-28.1,1.6-55,9.6-76.1,28c-25.7,22.4-38.1,55.9-45.8,89.4h-0.3
				c7.6-34,20-68.2,46.1-90.9c21.6-18.8,49.4-26.9,78.3-28.1c0.8,0,1.6-0.1,2.4-0.1c20.1-0.6,40.8,2,60.3,6.4c0.5,0.1,1,0.2,1.5,0.3
				c0.9,0.2,1.7,0.4,2.5,0.6c49.4,11.9,96.9,33.5,147.6,36.3c63,3.5,125.1-23,174.3-62.6c0.3-0.2,0.6-0.5,0.8-0.7
				c0.7-0.6,1.5-1.2,2.2-1.8C723.7,348.3,736.7,336.2,750,324.7z"/>
		</g>
		<g>
			<path class="st0" d="M750,0v66.4c-3.6,14.2-9,27.9-16.7,40.5c-34.1,55.7-104.6,77.2-169.7,81.6c-65.1,4.4-131.7-3.6-194.9,12.6
				c-79,20.2-145.1,77.2-190.1,145.3c-32.5,49.1-57.1,106.3-105.3,140c-7.6,5.3-15.7,9.8-24.1,13.5H0V0H750z"/>
			<linearGradient id="SVGID_10_" gradientUnits="userSpaceOnUse" x1="339.9137" y1="221.931" x2="120.2971" y2="46.2377">
				<stop  offset="0" style="stop-color:#FFFFFF;stop-opacity:0"/>
				<stop  offset="1" style="stop-color:#59595B"/>
			</linearGradient>
			<path class="st11" d="M750,0v66.4c-3.6,14.2-9,27.9-16.7,40.5c-34.1,55.7-104.6,77.2-169.7,81.6c-65.1,4.4-131.7-3.6-194.9,12.6
				c-79,20.2-145.1,77.2-190.1,145.3c-32.5,49.1-57.1,106.3-105.3,140c-7.6,5.3-15.7,9.8-24.1,13.5H0V0H750z"/>
			<linearGradient id="SVGID_11_" gradientUnits="userSpaceOnUse" x1="360.1756" y1="192.6151" x2="307.8057" y2="-10.1078">
				<stop  offset="0" style="stop-color:#FFFFFF;stop-opacity:0"/>
				<stop  offset="1" style="stop-color:#59595B"/>
			</linearGradient>
			<path class="st12" d="M750,0v66.4c-3.6,14.2-9,27.9-16.7,40.5c-34.1,55.7-104.6,77.2-169.7,81.6c-65.1,4.4-131.7-3.6-194.9,12.6
				c-79,20.2-145.1,77.2-190.1,145.3c-32.5,49.1-57.1,106.3-105.3,140c-7.6,5.3-15.7,9.8-24.1,13.5H0V0H750z"/>
			<linearGradient id="SVGID_12_" gradientUnits="userSpaceOnUse" x1="403.3532" y1="299.6188" x2="349.2938" y2="171.228">
				<stop  offset="0" style="stop-color:#FFFFFF;stop-opacity:0"/>
				<stop  offset="1" style="stop-color:#FFFFFF"/>
			</linearGradient>
			<path class="st13" d="M750,63.4v3.1c-3.6,14.2-9,27.9-16.7,40.5c-34.1,55.7-104.6,77.2-169.7,81.6
				c-65.1,4.4-131.7-3.6-194.9,12.6c-79,20.2-145.1,77.2-190.1,145.3c-32.5,49.1-57.1,106.3-105.3,140c-7.6,5.3-15.7,9.8-24.1,13.5
				h-7.4c11.1-4.2,21.7-9.7,31.6-16.5c48.2-33.8,72.9-90.9,105.3-140c45-68.1,111.1-125,190.1-145.3c63.2-16.2,129.8-8.2,194.9-12.6
				c65.1-4.4,135.6-26,169.7-81.6C741,91.3,746.4,77.6,750,63.4z"/>
		</g>
		<g>
			<path class="st0" d="M620.7,0c-0.5,1.4-1,2.8-1.6,4.2c-24.5,60.5-90.5,93.3-154,108.4c-63.5,15.1-130.5,18.1-190.2,44.5
				c-74.6,32.9-130.5,100-163.7,174.5c-24,53.8-38.9,114.2-80.9,155.4c-4.8,4.7-9.9,9.1-15.3,13H0V0H620.7z"/>
			<linearGradient id="SVGID_13_" gradientUnits="userSpaceOnUse" x1="300.5517" y1="240.2117" x2="103.9577" y2="43.6177">
				<stop  offset="0" style="stop-color:#FFFFFF;stop-opacity:0"/>
				<stop  offset="1" style="stop-color:#59595B"/>
			</linearGradient>
			<path class="st14" d="M620.7,0c-0.5,1.4-1,2.8-1.6,4.2c-24.5,60.5-90.5,93.3-154,108.4c-63.5,15.1-130.5,18.1-190.2,44.5
				c-74.6,32.9-130.5,100-163.7,174.5c-24,53.8-38.9,114.2-80.9,155.4c-4.8,4.7-9.9,9.1-15.3,13H0V0H620.7z"/>
			<linearGradient id="SVGID_14_" gradientUnits="userSpaceOnUse" x1="249.4812" y1="144.245" x2="331.5122" y2="275.7196">
				<stop  offset="0" style="stop-color:#FFFFFF;stop-opacity:0"/>
				<stop  offset="1" style="stop-color:#FFFFFF"/>
			</linearGradient>
			<path class="st15" d="M620.7,0c-0.5,1.4-1,2.8-1.6,4.2c-24.5,60.5-90.5,93.3-154,108.4c-63.5,15.1-130.5,18.1-190.2,44.5
				c-74.6,32.9-130.5,100-163.7,174.5c-24,53.8-38.9,114.2-80.9,155.4c-4.8,4.7-9.9,9.1-15.3,13h-4.7c7-4.7,13.5-10,19.5-15.9
				c42-41.2,56.9-101.7,80.9-155.4c33.2-74.5,89-141.6,163.7-174.5c59.7-26.3,126.7-29.4,190.2-44.4C528.1,94.6,594,61.8,618.5,1.3
				c0.2-0.4,0.3-0.8,0.5-1.3H620.7z"/>
		</g>
		<g>
			<path class="st0" d="M336.4,18.2c-5.3,50.5-47.6,89.2-91.9,114.2c-44.3,24.9-93.7,41.6-132.7,74.1
				C63,247.1,35.7,309.3,26.9,372.1c-6.1,43.2-4.7,89.2-24,127.9H0V56.2L117.9,0h218.8C337.1,6,337,12.1,336.4,18.2z"/>
			<linearGradient id="SVGID_15_" gradientUnits="userSpaceOnUse" x1="137.87" y1="213.2628" x2="61.2857" y2="120.9109">
				<stop  offset="0" style="stop-color:#FFFFFF;stop-opacity:0"/>
				<stop  offset="1" style="stop-color:#59595B"/>
			</linearGradient>
			<path class="st16" d="M336.4,18.2c-5.3,50.5-47.6,89.2-91.9,114.2c-44.3,24.9-93.7,41.6-132.7,74.1
				C63,247.1,35.7,309.3,26.9,372.1c-6.1,43.2-4.7,89.2-24,127.9H0V56.2L117.9,0h218.8C337.1,6,337,12.1,336.4,18.2z"/>
			<linearGradient id="SVGID_16_" gradientUnits="userSpaceOnUse" x1="98.6486" y1="192.9266" x2="158.3392" y2="241.3547">
				<stop  offset="0" style="stop-color:#FFFFFF;stop-opacity:0"/>
				<stop  offset="1" style="stop-color:#FFFFFF"/>
			</linearGradient>
			<path class="st17" d="M336.4,18.2c-5.3,50.5-47.6,89.2-91.9,114.2c-44.3,24.9-93.7,41.6-132.7,74.1
				C63,247.1,35.7,309.3,26.9,372.1c-6.1,43.2-4.7,89.2-24,127.9H1.3c19.9-38.9,18.5-85.3,24.6-128.9c8.8-62.9,36.2-125,84.9-165.7
				c39-32.5,88.5-49.2,132.7-74.1c44.3-24.9,86.5-63.6,91.9-114.1c0.6-5.8,0.7-11.5,0.4-17.2h0.9C337.1,6,337,12.1,336.4,18.2z"/>
		</g>
		<g>
			<path class="st0" d="M330.3,0c-18.1,24.1-44.4,43.4-71.2,57.8c-44.8,23.9-94.6,39.5-134.3,71.2c-49.6,39.6-78.3,101.1-88.5,163.8
				c-7.4,45.2-6.6,93.6-30,133c-1.9,3.2-4,6.3-6.2,9.3V0H330.3z"/>
			<linearGradient id="SVGID_17_" gradientUnits="userSpaceOnUse" x1="125.2524" y1="194.386" x2="-52.1303" y2="91.3352">
				<stop  offset="0" style="stop-color:#FFFFFF;stop-opacity:0"/>
				<stop  offset="1" style="stop-color:#59595B"/>
			</linearGradient>
			<path class="st18" d="M330.3,0c-18.1,24.1-44.4,43.4-71.2,57.8c-44.8,23.9-94.6,39.5-134.3,71.2
				c-49.6,39.6-78.3,101.1-88.5,163.8c-7.4,45.2-6.6,93.6-30,133c-1.9,3.2-4,6.3-6.2,9.3V0H330.3z"/>
			<linearGradient id="SVGID_18_" gradientUnits="userSpaceOnUse" x1="50.2036" y1="143.5906" x2="163.9534" y2="216.796">
				<stop  offset="0" style="stop-color:#FFFFFF;stop-opacity:0"/>
				<stop  offset="1" style="stop-color:#FFFFFF"/>
			</linearGradient>
			<path class="st19" d="M330.3,0c-18.1,24.1-44.4,43.4-71.2,57.8c-44.8,23.9-94.6,39.5-134.3,71.2
				c-49.6,39.6-78.3,101.1-88.5,163.8c-7.4,45.2-6.6,93.6-30,133c-1.9,3.2-4,6.3-6.2,9.3v-2.3c1.9-2.6,3.6-5.3,5.3-8
				c23.4-39.3,22.6-87.8,30-133c10.2-62.7,38.9-124.2,88.5-163.8c39.7-31.7,89.5-47.3,134.3-71.2c26.5-14.2,52.4-33.2,70.4-56.7
				H330.3z"/>
		</g>
		<g>
			<path class="st0" d="M241.5,0c-18.1,24.1-44.4,43.4-71.2,57.8C125.5,81.7,75.7,97.3,36,129c-13.5,10.8-25.5,23.2-36,36.9V0H241.5
				z"/>
			<linearGradient id="SVGID_19_" gradientUnits="userSpaceOnUse" x1="85.5691" y1="48.5246" x2="-2.6509" y2="-37.7638">
				<stop  offset="0" style="stop-color:#FFFFFF;stop-opacity:0"/>
				<stop  offset="1" style="stop-color:#59595B"/>
			</linearGradient>
			<path class="st20" d="M241.5,0c-18.1,24.1-44.4,43.4-71.2,57.8C125.5,81.7,75.7,97.3,36,129c-13.5,10.8-25.5,23.2-36,36.9V0
				H241.5z"/>
			<linearGradient id="SVGID_20_" gradientUnits="userSpaceOnUse" x1="112.028" y1="29.1233" x2="115.3993" y2="49.9131">
				<stop  offset="0" style="stop-color:#FFFFFF;stop-opacity:0"/>
				<stop  offset="1" style="stop-color:#FFFFFF"/>
			</linearGradient>
			<path class="st21" d="M241.5,0c-18.1,24.1-44.4,43.4-71.2,57.8C125.5,81.7,75.7,97.3,36,129c-13.5,10.8-25.5,23.2-36,36.9v-2.3
				c10.2-13.2,21.9-25.2,35-35.7c39.7-31.7,89.5-47.3,134.3-71.2c26.5-14.2,52.4-33.2,70.4-56.7H241.5z"/>
		</g>
	</g>
</g>
</svg>
